<svg xmlns="http://www.w3.org/2000/svg" width="1200" height="900" viewBox="0 0 1200 900">
  <g fill="none" stroke="#D8B8BC" stroke-width="6" stroke-linecap="round" stroke-linejoin="round">
    <!-- ground -->
    <path d="M180 760 H1020"/>
    
    <!-- father -->
    <circle cx="420" cy="280" r="42"/>
    <path d="M390 340 C380 400 380 500 390 590"/>
    <path d="M450 340 C460 400 460 500 450 590"/>
    <path d="M390 380 C350 420 330 470 320 540"/>
    <path d="M450 380 C490 420 510 470 520 540"/>
    <path d="M400 590 C390 650 380 700 370 760"/>
    <path d="M440 590 C450 650 460 700 470 760"/>
    
    <!-- mother -->
    <circle cx="760" cy="280" r="42"/>
    <path d="M720 360 C700 470 690 560 680 760"/>
    <path d="M800 360 C820 470 830 560 840 760"/>
    <path d="M720 360 C740 330 780 330 800 360"/>
    <path d="M760 340 L760 760"/>
    <path d="M720 420 C670 450 650 500 640 560"/>
    <path d="M800 420 C850 450 870 500 880 560"/>
    
    <!-- child 1 -->
    <circle cx="560" cy="420" r="28"/>
    <path d="M540 455 L535 560"/>
    <path d="M580 455 L585 560"/>
    <path d="M540 485 C510 510 500 540 495 575"/>
    <path d="M580 485 C610 510 620 540 625 575"/>
    <path d="M545 560 L535 650"/>
    <path d="M575 560 L585 650"/>
    
    <!-- child 2 -->
    <circle cx="650" cy="450" r="24"/>
    <path d="M632 480 L628 565"/>
    <path d="M668 480 L672 565"/>
    <path d="M632 505 C610 525 602 550 598 580"/>
    <path d="M668 505 C690 525 698 550 702 580"/>
    <path d="M635 565 L628 640"/>
    <path d="M665 565 L672 640"/>
    
    <!-- subtle heart -->
    <path d="M585 180 C585 150 620 145 635 170 C650 145 685 150 685 180 C685 215 635 250 635 250 C635 250 585 215 585 180"/>
  </g>
</svg>