<?xml version="1.0" encoding="utf-8"?>
<!-- Generator: Adobe Illustrator 24.0.2, SVG Export Plug-In . SVG Version: 6.00 Build 0)  -->
<svg version="1.1" xmlns="http://www.w3.org/2000/svg" xmlns:xlink="http://www.w3.org/1999/xlink" x="0px" y="0px"
	 viewBox="0 0 215.43 215.43" style="enable-background:new 0 0 215.43 215.43;" xml:space="preserve">
<style type="text/css">
	.st0{display:none;}
	.st1{display:inline;fill:#EAEAEA;}
	.st2{display:inline;fill-rule:evenodd;clip-rule:evenodd;fill:#FFFFFF;}
	.st3{display:inline;fill-rule:evenodd;clip-rule:evenodd;fill:#FFA500;}
	.st4{display:inline;fill-rule:evenodd;clip-rule:evenodd;fill:#E20613;}
	.st5{display:inline;fill-rule:evenodd;clip-rule:evenodd;fill:#336633;}
	.st6{fill:#336633;}
	.st7{clip-path:url(#SVGID_3_);}
	.st8{fill-rule:evenodd;clip-rule:evenodd;fill:#336633;}
	.st9{opacity:0.75;fill-rule:evenodd;clip-rule:evenodd;fill:url(#SVGID_5_);}
	.st10{fill:#FFFFFF;}
	.st11{fill-rule:evenodd;clip-rule:evenodd;fill:#FFFFFF;}
	.st12{clip-path:url(#SVGID_8_);}
	.st13{opacity:0.75;fill-rule:evenodd;clip-rule:evenodd;fill:url(#SVGID_10_);}
	.st14{clip-path:url(#SVGID_13_);}
	.st15{opacity:0.75;fill-rule:evenodd;clip-rule:evenodd;fill:url(#SVGID_15_);}
	.st16{clip-path:url(#SVGID_18_);}
	.st17{opacity:0.75;fill-rule:evenodd;clip-rule:evenodd;fill:url(#SVGID_20_);}
	.st18{clip-path:url(#SVGID_23_);}
	.st19{fill-rule:evenodd;clip-rule:evenodd;fill:none;stroke:#A5A4AC;stroke-miterlimit:10;}
	.st20{fill-rule:evenodd;clip-rule:evenodd;}
	.st21{clip-path:url(#SVGID_27_);}
	.st22{clip-path:url(#SVGID_31_);}
	.st23{display:inline;}
	.st24{clip-path:url(#SVGID_39_);}
	.st25{clip-path:url(#SVGID_43_);}
	.st26{clip-path:url(#SVGID_47_);}
	.st27{fill:#A5A4AC;}
	.st28{fill:#D8D8DE;}
	.st29{clip-path:url(#SVGID_55_);}
	.st30{clip-path:url(#SVGID_59_);}
	.st31{clip-path:url(#SVGID_63_);}
	.st32{clip-path:url(#SVGID_67_);}
	.st33{clip-path:url(#SVGID_71_);}
	.st34{clip-path:url(#SVGID_75_);}
	.st35{clip-path:url(#SVGID_79_);}
	.st36{fill:#E20613;}
	.st37{fill-rule:evenodd;clip-rule:evenodd;fill:#E20613;}
	.st38{clip-path:url(#SVGID_83_);}
	.st39{clip-path:url(#SVGID_87_);}
	.st40{fill-rule:evenodd;clip-rule:evenodd;fill:#FFA500;}
	.st41{fill:#FFA500;}
	.st42{clip-path:url(#SVGID_91_);}
	.st43{clip-path:url(#SVGID_95_);}
	.st44{clip-path:url(#SVGID_99_);}
	.st45{clip-path:url(#SVGID_103_);}
	.st46{fill-rule:evenodd;clip-rule:evenodd;fill:none;stroke:#E20613;stroke-miterlimit:10;}
	.st47{clip-path:url(#SVGID_107_);}
	.st48{fill-rule:evenodd;clip-rule:evenodd;fill:none;stroke:#336633;stroke-miterlimit:10;}
	.st49{clip-path:url(#SVGID_111_);}
	.st50{clip-path:url(#SVGID_114_);}
	.st51{clip-path:url(#SVGID_116_);}
	.st52{clip-path:url(#SVGID_120_);}
	.st53{fill-rule:evenodd;clip-rule:evenodd;fill:none;stroke:#FFA500;stroke-miterlimit:10;}
	.st54{clip-path:url(#SVGID_129_);}
	.st55{clip-path:url(#SVGID_133_);}
	.st56{clip-path:url(#SVGID_137_);}
	.st57{clip-path:url(#SVGID_141_);}
	.st58{opacity:0.35;fill-rule:evenodd;clip-rule:evenodd;fill:url(#SVGID_143_);}
	.st59{clip-path:url(#SVGID_146_);}
	.st60{opacity:0.75;fill-rule:evenodd;clip-rule:evenodd;fill:url(#SVGID_148_);}
	.st61{clip-path:url(#SVGID_151_);}
	.st62{opacity:0.35;fill-rule:evenodd;clip-rule:evenodd;fill:url(#SVGID_153_);}
	.st63{opacity:0.25;fill-rule:evenodd;clip-rule:evenodd;fill:url(#SVGID_154_);}
	.st64{opacity:0.25;fill-rule:evenodd;clip-rule:evenodd;fill:url(#SVGID_155_);}
	.st65{opacity:0.25;fill-rule:evenodd;clip-rule:evenodd;fill:url(#SVGID_158_);}
	.st66{fill:none;}
	.st67{opacity:0.25;fill-rule:evenodd;clip-rule:evenodd;fill:url(#SVGID_159_);}
	.st68{opacity:0.25;fill-rule:evenodd;clip-rule:evenodd;fill:url(#SVGID_160_);}
	.st69{opacity:0.25;fill-rule:evenodd;clip-rule:evenodd;fill:url(#SVGID_161_);}
	.st70{clip-path:url(#SVGID_164_);}
	.st71{opacity:0.35;fill-rule:evenodd;clip-rule:evenodd;fill:url(#SVGID_166_);}
	.st72{clip-path:url(#SVGID_169_);}
	.st73{opacity:0.75;fill-rule:evenodd;clip-rule:evenodd;fill:url(#SVGID_171_);}
	.st74{clip-path:url(#SVGID_174_);}
	.st75{opacity:0.35;fill-rule:evenodd;clip-rule:evenodd;fill:url(#SVGID_176_);}
	.st76{clip-path:url(#SVGID_179_);}
	.st77{opacity:0.35;fill-rule:evenodd;clip-rule:evenodd;fill:url(#SVGID_181_);}
	.st78{clip-path:url(#SVGID_184_);}
	.st79{opacity:0.75;fill-rule:evenodd;clip-rule:evenodd;fill:url(#SVGID_186_);}
	.st80{clip-path:url(#SVGID_189_);}
	.st81{opacity:0.35;fill-rule:evenodd;clip-rule:evenodd;fill:url(#SVGID_191_);}
	.st82{opacity:0.25;fill-rule:evenodd;clip-rule:evenodd;fill:url(#SVGID_192_);}
	.st83{opacity:0.25;fill-rule:evenodd;clip-rule:evenodd;fill:url(#SVGID_193_);}
	.st84{opacity:0.25;fill-rule:evenodd;clip-rule:evenodd;fill:url(#SVGID_196_);}
	.st85{opacity:0.25;fill-rule:evenodd;clip-rule:evenodd;fill:url(#SVGID_197_);}
	.st86{opacity:0.25;fill-rule:evenodd;clip-rule:evenodd;fill:url(#SVGID_198_);}
	.st87{opacity:0.25;fill-rule:evenodd;clip-rule:evenodd;fill:url(#SVGID_201_);}
	.st88{clip-path:url(#SVGID_204_);}
	.st89{opacity:0.35;fill-rule:evenodd;clip-rule:evenodd;fill:url(#SVGID_206_);}
	.st90{clip-path:url(#SVGID_209_);}
	.st91{opacity:0.75;fill-rule:evenodd;clip-rule:evenodd;fill:url(#SVGID_211_);}
	.st92{clip-path:url(#SVGID_214_);}
	.st93{opacity:0.35;fill-rule:evenodd;clip-rule:evenodd;fill:url(#SVGID_216_);}
</style>
<g id="доп_информация" class="st0">
	<rect x="-1377.61" y="-1396.7" class="st1" width="1956.34" height="1872.56"/>
</g>
<g id="проекты">
</g>
<g id="Монохром_ШРИФТ_1_">
</g>
<g id="Монохром__КРИВЫЕ">
</g>
<g id="Инверсия_КРИВЫЕ_1_">
	<g>
		<g>
			<defs>
				<path id="SVGID_77_" d="M107.72,3.68C50.26,3.68,3.68,50.26,3.68,107.72c0,57.46,46.58,104.03,104.03,104.03
					c57.46,0,104.03-46.58,104.03-104.03C211.75,50.26,165.17,3.68,107.72,3.68z"/>
			</defs>
			<defs>
				<path id="SVGID_78_" d="M107.72,8.79c-54.63,0-98.92,44.29-98.92,98.92c0,54.63,44.29,98.92,98.92,98.92
					c54.63,0,98.92-44.29,98.92-98.92C206.64,53.08,162.35,8.79,107.72,8.79 M107.72,3.68C50.26,3.68,3.68,50.26,3.68,107.72
					c0,57.46,46.58,104.03,104.03,104.03c57.46,0,104.03-46.58,104.03-104.03C211.75,50.26,165.17,3.68,107.72,3.68z"/>
			</defs>
			<use xlink:href="#SVGID_77_"  style="overflow:visible;fill-rule:evenodd;clip-rule:evenodd;fill:#FFFFFF;"/>
			<use xlink:href="#SVGID_78_"  style="overflow:visible;fill-rule:evenodd;clip-rule:evenodd;fill:#E20613;"/>
			<clipPath id="SVGID_3_">
				<use xlink:href="#SVGID_77_"  style="overflow:visible;"/>
			</clipPath>
			<clipPath id="SVGID_4_" class="st7">
				<use xlink:href="#SVGID_78_"  style="overflow:visible;"/>
			</clipPath>
		</g>
		<g>
			<path class="st36" d="M107.72,204.59c-53.42,0-96.88-43.46-96.88-96.88s43.46-96.88,96.88-96.88s96.88,43.46,96.88,96.88
				S161.14,204.59,107.72,204.59z M107.72,11.84c-52.87,0-95.88,43.01-95.88,95.88s43.01,95.88,95.88,95.88s95.88-43.01,95.88-95.88
				S160.58,11.84,107.72,11.84z"/>
		</g>
		<path class="st36" d="M149.15,138.66h2.54c0.39,0,0.61-0.22,0.61-0.61v-17.71h4.33c0.35,0,0.57-0.22,0.57-0.61v-2.36
			c0-0.35-0.22-0.57-0.57-0.57h-12.38c-0.39,0-0.61,0.22-0.61,0.57v2.36c0,0.39,0.22,0.61,0.61,0.61h4.29v17.71
			C148.53,138.44,148.75,138.66,149.15,138.66 M131.52,126.45v-3.11c0-2.1,1.14-3.46,3.19-3.46c2.01,0,3.24,1.36,3.24,3.46
			c0,1.84-1.18,3.11-3.19,3.11H131.52z M134.67,139.09c3.94,0,6.69-2.71,6.91-6.78c0-0.35-0.22-0.57-0.57-0.57h-2.58
			c-0.35,0-0.57,0.18-0.61,0.57c-0.13,1.92-1.31,3.24-3.11,3.24c-2.01,0-3.19-1.4-3.19-3.41v-2.27h3.24c4.15,0,6.95-2.76,6.95-6.6
			c0-4.02-2.89-6.95-7-6.91c-4.2,0-6.91,2.89-6.95,7.04v8.57C127.76,136.25,130.56,139.09,134.67,139.09z M117.83,135.2h-3.19v-6.39
			h3.19c2.01,0,3.37,1.22,3.37,3.24C121.2,134.02,119.85,135.2,117.83,135.2z M114.64,122.61c0-1.79,1.05-2.89,2.84-2.89
			c1.88,0,2.89,1.05,2.89,2.89c0,1.79-1.05,2.89-3.02,2.89h-2.71V122.61z M121.68,126.85c1.4-0.83,2.27-2.41,2.27-4.37
			c0-3.67-2.54-6.17-6.47-6.17c-3.98,0-6.56,2.71-6.56,6.6v13.65c0,1.4,0.79,2.19,2.23,2.19h5.25c3.8,0,6.52-2.62,6.52-6.43
			C124.92,129.73,123.65,127.72,121.68,126.85z M100.12,135.59c-2.01,0-3.19-1.4-3.19-3.45v-8.83c0-2.06,1.18-3.46,3.19-3.46
			c2.01,0,3.24,1.4,3.24,3.46v8.83C103.36,134.2,102.13,135.59,100.12,135.59z M100.12,139.14c4.24,0,7-2.97,7-7.13v-8.57
			c0-4.15-2.76-7.13-7-7.13c-4.2,0-7,2.97-7,7.13v8.57C93.12,136.16,95.92,139.14,100.12,139.14z M83.46,139.14
			c4.46,0,7.39-3.37,7.57-8.66c0-0.39-0.22-0.61-0.57-0.61h-2.8c-0.35,0-0.57,0.18-0.57,0.57c-0.09,3.19-1.44,4.99-3.67,4.99
			c-2.19,0-3.45-1.49-3.45-3.94v-16.27c0-2.45,1.27-3.94,3.45-3.94c2.01,0,3.37,1.62,3.46,4.68c0,0.39,0.22,0.57,0.57,0.57h2.8
			c0.39,0,0.57-0.22,0.57-0.57c-0.13-5.12-3.06-8.4-7.35-8.4c-4.46,0-7.48,3.15-7.48,7.87v15.83
			C75.98,135.99,79,139.14,83.46,139.14z"/>
		<path class="st37" d="M52.62,131.21c-0.14,0.15-0.04,0.1-0.28,0.16c-0.28-0.19-0.56-0.81-0.64-1.23
			c-0.53-0.77-1.54-4.65-2.19-5.19c-0.92-0.77-2.12-0.04-3.27,0.54c-1.53,0.77-2.6,1.2-1.61,3.66l1.25,3.19
			c0.14,0.36,0.32,0.73,0.41,1.1l0.2,0.43c0.08,0.24,0.2,0.56,0.3,0.79l0.95,2.42c0.51,1.45,0.93,1.45,1.8,1.57
			c0.36,0.05,0.72,0.06,1.1,0.03l1,0.01c1.68,0.01,2.28-1.39,3.15-2.72l5.84-8.84c0.21-0.32,0.38-0.58,0.6-0.91l1.2-1.74
			c0.21-0.32,0.41-0.58,0.62-0.88c0.42-0.58,0.79-1.13,1.23-1.71l3.26-4.05c1.6-1.99,4.6-5.52,5.82-7.5
			c0.58-0.95-0.53-1.13-1.4-1.14h-0.18c-1.49,0.02-3.29,0.55-4.35,1.42c-0.32,0.26-0.46,0.4-0.74,0.69
			c-0.93,0.94-1.84,2.18-2.61,3.26c-0.22,0.31-0.42,0.57-0.63,0.88c-0.41,0.62-0.81,1.15-1.22,1.78l-8.9,13.17
			C53.1,130.74,52.95,131,52.62,131.21"/>
		<path d="M151.13,161.65h2.68c0.89,0,1.39-0.47,1.39-1.39v-12.21c0-0.22-0.14-0.36-0.36-0.36h-1.64c-0.22,0-0.36,0.14-0.36,0.36
			v11.34h-1.7c-1.25,0-2.09-0.81-2.09-2.06v-9.28c0-0.22-0.14-0.36-0.39-0.36h-1.62c-0.25,0-0.39,0.14-0.39,0.36v9.2
			C146.64,159.87,148.51,161.65,151.13,161.65 M150.85,145.99c1.81,0,3.04-1.11,3.21-2.79c0-0.25-0.14-0.39-0.36-0.39h-1.09
			c-0.22,0-0.33,0.11-0.42,0.36c-0.11,0.64-0.59,1-1.34,1c-0.78,0-1.25-0.36-1.37-1c-0.06-0.25-0.17-0.36-0.42-0.36h-1.09
			c-0.22,0-0.36,0.14-0.36,0.39C147.78,144.9,149.04,145.99,150.85,145.99z M137.94,153.85v-1.98c0-1.34,0.72-2.2,2.03-2.2
			c1.28,0,2.06,0.86,2.06,2.2c0,1.17-0.75,1.98-2.03,1.98H137.94z M139.95,161.91c2.51,0,4.26-1.73,4.4-4.32
			c0-0.22-0.14-0.36-0.36-0.36h-1.64c-0.22,0-0.36,0.11-0.39,0.36c-0.08,1.23-0.84,2.06-1.98,2.06c-1.28,0-2.03-0.89-2.03-2.17
			v-1.45h2.06c2.65,0,4.43-1.76,4.43-4.21c0-2.56-1.84-4.43-4.46-4.4c-2.68,0-4.4,1.84-4.43,4.49v5.46
			C135.55,160.09,137.33,161.91,139.95,161.91z M130.89,157.47c0,1.31-0.75,2.17-2.03,2.17c-1.28,0-2.06-0.86-2.06-2.17v-5.63
			c0-1.31,0.78-2.17,2.06-2.17c1.28,0,2.03,0.86,2.03,2.17V157.47z M128.86,147.38c-2.68,0-4.46,1.9-4.46,4.54v14.91
			c0,0.22,0.14,0.36,0.39,0.36h1.64c0.22,0,0.36-0.14,0.36-0.36v-5.85c0.64,0.59,1.45,0.95,2.45,0.95c2.26,0,4.04-1.9,4.04-4.54
			v-5.46C133.29,149.28,131.5,147.38,128.86,147.38z M115.78,153.85v-1.98c0-1.34,0.72-2.2,2.03-2.2c1.28,0,2.06,0.86,2.06,2.2
			c0,1.17-0.75,1.98-2.03,1.98H115.78z M117.79,161.91c2.51,0,4.26-1.73,4.4-4.32c0-0.22-0.14-0.36-0.36-0.36h-1.64
			c-0.22,0-0.36,0.11-0.39,0.36c-0.08,1.23-0.84,2.06-1.98,2.06c-1.28,0-2.03-0.89-2.03-2.17v-1.45h2.06c2.65,0,4.43-1.76,4.43-4.21
			c0-2.56-1.84-4.43-4.46-4.4c-2.68,0-4.4,1.84-4.43,4.49v5.46C113.39,160.09,115.17,161.91,117.79,161.91z M107.23,161.63h1.62
			c0.25,0,0.39-0.14,0.39-0.39v-11.29h2.76c0.22,0,0.36-0.14,0.36-0.39v-1.51c0-0.22-0.14-0.36-0.36-0.36h-7.89
			c-0.25,0-0.39,0.14-0.39,0.36v1.51c0,0.25,0.14,0.39,0.39,0.39h2.73v11.29C106.84,161.49,106.98,161.63,107.23,161.63z
			 M98.34,159.62c-1.31,0-2.09-0.86-2.09-2.2c0-1.09,0.78-1.95,2.09-1.95h2.01v2.03C100.34,158.78,99.62,159.62,98.34,159.62z
			 M98.36,161.91c2.68,0,4.35-1.84,4.35-4.4v-5.6c0-2.62-1.7-4.52-4.35-4.52c-2.48,0-4.13,1.73-4.29,4.15
			c0,0.22,0.14,0.39,0.36,0.39h1.62c0.25,0,0.36-0.08,0.39-0.33c0.08-1.14,0.72-1.92,1.9-1.92c1.25,0,2.01,0.86,2.01,2.12v1.53
			h-2.09c-2.62,0-4.4,1.78-4.4,4.1C93.85,160.04,95.66,161.91,98.36,161.91z M77.65,161.63h1.73c0.25,0,0.36-0.14,0.36-0.39v-10.15
			c-0.03-2.03-0.06-3.99-0.11-5.99h0.08c0.31,1.25,0.7,2.65,1.06,3.9l2.03,6.38c0.17,0.61,0.58,0.95,1.25,0.95h0.7
			c0.67,0,1.09-0.33,1.25-0.95l2.03-6.38c0.39-1.25,0.75-2.65,1.09-3.9h0.06c-0.06,2.01-0.08,3.96-0.08,5.99l-0.03,10.15
			c0,0.25,0.14,0.39,0.36,0.39h1.76c0.22,0,0.36-0.14,0.36-0.39V143.2c0-0.75-0.39-1.17-1.11-1.17H88.8c-0.61,0-0.98,0.33-1.17,0.98
			l-2.17,6.88c-0.33,1.09-0.72,2.34-1,3.46H84.4c-0.31-1.11-0.7-2.37-1.03-3.46l-2.17-6.88c-0.2-0.64-0.53-0.98-1.17-0.98h-1.62
			c-0.75,0-1.14,0.42-1.14,1.17v18.03C77.26,161.49,77.4,161.63,77.65,161.63z"/>
		<path class="st36" d="M123.33,57.66c-0.74,1.48-1.19,3.1-1.19,4.86l0,0.08c0.02,1.34,0.51,2.45,1.25,3.23
			c0.73,0.76,1.7,1.2,2.74,1.19c0.04,0,0.08,0,0.12,0c1.04,0,2.01-0.43,2.74-1.19c0.74-0.78,1.23-1.9,1.25-3.23l0-0.08
			c0.01-1.64-0.39-3.16-1.04-4.56c-0.06,0.16-0.14,0.31-0.22,0.46c-0.36,0.62-0.9,1.1-1.57,1.35c-0.33,0.12-0.7,0.19-1.09,0.19
			c-0.39,0-0.75-0.07-1.09-0.19c-0.68-0.25-1.21-0.73-1.57-1.35C123.52,58.18,123.41,57.93,123.33,57.66 M126.19,53.73
			c-0.46,0.47-0.89,0.97-1.3,1.48c-0.13,0.39-0.19,0.77-0.19,1.13c0,0.49,0.11,0.93,0.31,1.28c0.18,0.31,0.44,0.55,0.76,0.66
			c0.16,0.06,0.34,0.09,0.54,0.09c0.2,0,0.38-0.03,0.54-0.09c0.32-0.12,0.58-0.35,0.76-0.66c0.2-0.35,0.31-0.79,0.31-1.28
			c0-0.2-0.02-0.42-0.06-0.63l-0.1-0.14C127.29,54.93,126.75,54.32,126.19,53.73z M98.67,94.07c2.52,1.16,5.3,1.78,8.17,1.78
			c0.63,0,1.25-0.03,1.87-0.09c-2.14-0.3-4.19-0.83-6.08-1.54c-0.26,0.01-0.52,0.01-0.79,0.01C100.77,94.23,99.71,94.17,98.67,94.07
			z M112.98,53.32C112.98,53.32,112.98,53.32,112.98,53.32L112.98,53.32z M111.06,65.83c-0.72-1.28-1.76-2.32-3-3.03
			c-1.24-0.72-2.67-1.12-4.16-1.12c-2.3,0-4.38,0.93-5.88,2.43c-1.51,1.5-2.44,3.56-2.44,5.83h0h0l0,5.24l7.68-4.43l0.78,1.36
			l-8.46,4.88l0,1.02l11.15-6.44l0.78,1.36l-11.93,6.89l0,1.45l17.05-10.72c0.99-0.62,1.76-1.47,2.27-2.5
			c0.51-1.04,0.77-2.3,0.76-3.74c-0.02-1.68-0.38-3.19-1-4.63c-0.63-1.46-1.53-2.85-2.61-4.24c-0.36-0.47-0.66-1.25-0.66-1.92
			c0-0.25,0.04-0.5,0.13-0.74c0.1-0.27,0.27-0.51,0.51-0.69c0.28-0.22,0.64-0.35,1.1-0.35h2.99l-0.19-0.04l-0.11-0.47
			c-0.18-0.77-0.62-1.44-1.21-1.9c-0.58-0.46-1.31-0.73-2.11-0.73c-0.94,0-1.79,0.38-2.41,1c-0.62,0.62-1,1.47-1,2.41
			c0,0.12,0.07,0.38,0.19,0.72c0.12,0.32,0.28,0.68,0.47,1.03l0,0l3.38,5.41c0.67,1.07,0.88,2.18,0.75,3.29
			c-0.15,1.19-0.69,2.36-1.5,3.47l-0.72,1L111.06,65.83z M107.93,93.62v0.43c1.63,0.29,3.34,0.44,5.07,0.44
			c0.36,0,0.71-0.01,1.07-0.02c0.88-0.35,1.73-0.76,2.55-1.24l0.01,0c-1.07,0.17-2.17,0.26-3.29,0.26c-1.22,0-2.41-0.1-3.57-0.3
			C109.17,93.35,108.56,93.49,107.93,93.62z M107.93,75.36v15.79c0.57,0.17,1.16,0.31,1.77,0.42c0.7-0.2,1.38-0.43,2.04-0.68
			c2.92-1.12,5.4-2.75,7.14-4.75l1.19,1.03c-1.68,1.94-3.98,3.55-6.68,4.73c2.37-0.01,4.65-0.43,6.62-1.18l0.08-0.03
			c1.44-1.33,2.7-2.88,3.7-4.62l1.36,0.79c-0.17,0.3-0.35,0.59-0.53,0.88c0.05-0.06,0.1-0.12,0.15-0.17l1.19,1.03
			c-1.25,1.44-2.99,2.62-5.02,3.46c-0.8,0.72-1.66,1.37-2.55,1.95c1.59-0.3,3.11-0.72,4.52-1.27c2.92-1.12,5.4-2.75,7.14-4.75
			l1.19,1.03c-1.9,2.2-4.6,3.97-7.76,5.18c-2.75,1.06-5.85,1.7-9.08,1.84c-2.37,0.91-4.93,1.39-7.55,1.39
			c-3.77,0-7.41-1.01-10.57-2.83l0,0c-0.69-0.4-1.36-0.84-2-1.31c-1-0.26-1.96-0.57-2.89-0.92c-3.16-1.22-5.86-2.99-7.76-5.18
			l1.19-1.03c1.61,1.86,3.87,3.39,6.52,4.5c-1.06-1.14-2-2.41-2.8-3.79l1.36-0.78c1.31,2.27,3.04,4.22,5.06,5.76
			c1.33,0.33,2.71,0.56,4.13,0.69c-1.68-1-3.14-2.18-4.3-3.52l1.19-1.03c1.69,1.95,4.08,3.54,6.91,4.66
			c1.18-0.04,2.35-0.15,3.48-0.33v-0.03c-0.08-0.03-0.16-0.06-0.24-0.09c-2.2-0.84-4.07-2.08-5.39-3.6l1.19-1.03
			c1.09,1.26,2.63,2.29,4.44,3.04V76.35l-12.34,7.76l0.01-14.17h0h0c0-2.7,1.11-5.16,2.9-6.94c1.79-1.78,4.26-2.89,6.99-2.89
			c1.77,0,3.47,0.47,4.95,1.33c1.11,0.65,2.1,1.51,2.88,2.56c0.31-0.58,0.52-1.17,0.59-1.75c0.09-0.76-0.05-1.53-0.52-2.27
			l-3.38-5.41l-0.01-0.02c-0.26-0.44-0.46-0.9-0.6-1.3c-0.19-0.52-0.29-0.98-0.29-1.26c0-1.37,0.56-2.62,1.46-3.52
			c0.9-0.9,2.15-1.46,3.52-1.46c1.16,0,2.23,0.4,3.08,1.08c0.74,0.59,1.3,1.38,1.62,2.29c1.72,0.41,3.11,0.71,4.58,1.04
			c0.51,0.11,1.02,0.23,1.55,0.34l0.93,0.21c-0.62-0.52-1.26-1-1.88-1.44l0.9-1.29c0.96,0.68,1.95,1.45,2.9,2.31
			c0.95-0.86,1.94-1.63,2.9-2.31l0.9,1.29c-0.89,0.63-1.8,1.33-2.67,2.12l3,0.67h-2.39c0.36,0.41,0.71,0.83,1.04,1.27l0.18-0.07
			c0.07,0.19,0.13,0.38,0.18,0.57c1.49,2.14,2.49,4.63,2.47,7.44l0,0.09c-0.03,1.76-0.68,3.24-1.68,4.29
			c-1.02,1.07-2.41,1.68-3.88,1.68l-0.05,0l-0.05,0c-1.48,0.01-2.86-0.61-3.88-1.68c-1-1.05-1.65-2.53-1.68-4.29l0-0.09
			c-0.01-3.01,1.13-5.64,2.78-7.87c0.34-0.46,0.71-0.91,1.09-1.34h-11.33c-0.08,0-0.12,0.01-0.14,0.01l0,0l0,0c0,0,0.01,0,0.01,0
			c-0.02,0.04-0.02,0.11-0.02,0.18c0,0.34,0.15,0.73,0.33,0.96c1.16,1.49,2.13,2.99,2.81,4.58c0.7,1.62,1.1,3.33,1.13,5.24
			c0.02,1.69-0.3,3.18-0.92,4.44c-0.64,1.31-1.6,2.36-2.84,3.14L107.93,75.36z"/>
	</g>
</g>
<g id="Инверсия_ШРИФТ">
</g>
<g id="Полноцвет_КРИВЫЕ">
</g>
<g id="Полноцвет_ШРИФТ">
</g>
</svg>
